<mxfile host="app.diagrams.net" agent="Mozilla/5.0 (Windows NT 10.0; Win64; x64; rv:131.0) Gecko/20100101 Firefox/131.0" version="24.7.17">
  <diagram name="Page-1" id="-yvtjSVOBkPBHiRVmAEW">
    <mxGraphModel dx="3195" dy="1100" grid="1" gridSize="10" guides="1" tooltips="1" connect="1" arrows="1" fold="1" page="1" pageScale="1" pageWidth="850" pageHeight="1100" math="0" shadow="0">
      <root>
        <mxCell id="0" />
        <mxCell id="1" parent="0" />
        <mxCell id="dJ2C7ThrUOeOuewxOJgJ-1" value="Mulai" style="ellipse;whiteSpace=wrap;html=1;" parent="1" vertex="1">
          <mxGeometry x="360" y="180" width="120" height="80" as="geometry" />
        </mxCell>
        <mxCell id="aoZ7Cay_6pQfR-Mpqlmk-1" value="" style="endArrow=classic;html=1;rounded=0;" parent="1" source="dJ2C7ThrUOeOuewxOJgJ-1" edge="1">
          <mxGeometry width="50" height="50" relative="1" as="geometry">
            <mxPoint x="400" y="340" as="sourcePoint" />
            <mxPoint x="420" y="320" as="targetPoint" />
          </mxGeometry>
        </mxCell>
        <mxCell id="aoZ7Cay_6pQfR-Mpqlmk-15" style="edgeStyle=orthogonalEdgeStyle;rounded=0;orthogonalLoop=1;jettySize=auto;html=1;exitX=0.5;exitY=1;exitDx=0;exitDy=0;entryX=0.5;entryY=0;entryDx=0;entryDy=0;" parent="1" source="aoZ7Cay_6pQfR-Mpqlmk-3" target="aoZ7Cay_6pQfR-Mpqlmk-13" edge="1">
          <mxGeometry relative="1" as="geometry" />
        </mxCell>
        <mxCell id="aoZ7Cay_6pQfR-Mpqlmk-3" value="Menu" style="shape=parallelogram;perimeter=parallelogramPerimeter;whiteSpace=wrap;html=1;fixedSize=1;" parent="1" vertex="1">
          <mxGeometry x="360" y="310" width="120" height="60" as="geometry" />
        </mxCell>
        <mxCell id="aoZ7Cay_6pQfR-Mpqlmk-23" style="edgeStyle=orthogonalEdgeStyle;rounded=0;orthogonalLoop=1;jettySize=auto;html=1;exitX=0;exitY=0.5;exitDx=0;exitDy=0;" parent="1" source="aoZ7Cay_6pQfR-Mpqlmk-13" edge="1">
          <mxGeometry relative="1" as="geometry">
            <mxPoint x="120" y="475" as="targetPoint" />
          </mxGeometry>
        </mxCell>
        <mxCell id="aoZ7Cay_6pQfR-Mpqlmk-33" style="edgeStyle=orthogonalEdgeStyle;rounded=0;orthogonalLoop=1;jettySize=auto;html=1;exitX=0.5;exitY=1;exitDx=0;exitDy=0;" parent="1" source="aoZ7Cay_6pQfR-Mpqlmk-13" edge="1">
          <mxGeometry relative="1" as="geometry">
            <mxPoint x="420" y="600" as="targetPoint" />
          </mxGeometry>
        </mxCell>
        <mxCell id="aoZ7Cay_6pQfR-Mpqlmk-106" style="edgeStyle=orthogonalEdgeStyle;rounded=0;orthogonalLoop=1;jettySize=auto;html=1;exitX=1;exitY=0.5;exitDx=0;exitDy=0;entryX=0;entryY=0.25;entryDx=0;entryDy=0;" parent="1" source="aoZ7Cay_6pQfR-Mpqlmk-13" target="aoZ7Cay_6pQfR-Mpqlmk-26" edge="1">
          <mxGeometry relative="1" as="geometry" />
        </mxCell>
        <mxCell id="aoZ7Cay_6pQfR-Mpqlmk-13" value="DaftarAkun" style="rhombus;whiteSpace=wrap;html=1;" parent="1" vertex="1">
          <mxGeometry x="360" y="430" width="120" height="90" as="geometry" />
        </mxCell>
        <mxCell id="4voGFHQjfuxiwdlHkZC2-31" style="edgeStyle=orthogonalEdgeStyle;rounded=0;orthogonalLoop=1;jettySize=auto;html=1;exitX=0.5;exitY=1;exitDx=0;exitDy=0;" parent="1" source="aoZ7Cay_6pQfR-Mpqlmk-26" edge="1">
          <mxGeometry relative="1" as="geometry">
            <mxPoint x="610" y="1283" as="targetPoint" />
            <Array as="points">
              <mxPoint x="755" y="1280" />
              <mxPoint x="611" y="1280" />
              <mxPoint x="611" y="1283" />
            </Array>
          </mxGeometry>
        </mxCell>
        <mxCell id="aoZ7Cay_6pQfR-Mpqlmk-26" value="Keluar" style="shape=parallelogram;perimeter=parallelogramPerimeter;whiteSpace=wrap;html=1;fixedSize=1;" parent="1" vertex="1">
          <mxGeometry x="700" y="460" width="110" height="50" as="geometry" />
        </mxCell>
        <mxCell id="aoZ7Cay_6pQfR-Mpqlmk-28" style="edgeStyle=orthogonalEdgeStyle;rounded=0;orthogonalLoop=1;jettySize=auto;html=1;exitX=0.5;exitY=1;exitDx=0;exitDy=0;" parent="1" source="aoZ7Cay_6pQfR-Mpqlmk-27" edge="1">
          <mxGeometry relative="1" as="geometry">
            <mxPoint x="65.33333333333337" y="600" as="targetPoint" />
            <Array as="points">
              <mxPoint x="65" y="590" />
              <mxPoint x="65" y="590" />
            </Array>
          </mxGeometry>
        </mxCell>
        <mxCell id="aoZ7Cay_6pQfR-Mpqlmk-27" value="Login" style="shape=parallelogram;perimeter=parallelogramPerimeter;whiteSpace=wrap;html=1;fixedSize=1;" parent="1" vertex="1">
          <mxGeometry x="10" y="470" width="110" height="50" as="geometry" />
        </mxCell>
        <mxCell id="aoZ7Cay_6pQfR-Mpqlmk-31" style="edgeStyle=orthogonalEdgeStyle;rounded=0;orthogonalLoop=1;jettySize=auto;html=1;exitX=0.5;exitY=1;exitDx=0;exitDy=0;" parent="1" source="aoZ7Cay_6pQfR-Mpqlmk-29" edge="1">
          <mxGeometry relative="1" as="geometry">
            <mxPoint x="60" y="740" as="targetPoint" />
          </mxGeometry>
        </mxCell>
        <mxCell id="aoZ7Cay_6pQfR-Mpqlmk-29" value="&lt;div&gt;Masukkan &lt;br&gt;&lt;/div&gt;&lt;div&gt;Username&lt;br&gt;&lt;/div&gt;" style="shape=parallelogram;perimeter=parallelogramPerimeter;whiteSpace=wrap;html=1;fixedSize=1;" parent="1" vertex="1">
          <mxGeometry y="600" width="120" height="60" as="geometry" />
        </mxCell>
        <mxCell id="aoZ7Cay_6pQfR-Mpqlmk-41" style="edgeStyle=orthogonalEdgeStyle;rounded=0;orthogonalLoop=1;jettySize=auto;html=1;exitX=0.5;exitY=1;exitDx=0;exitDy=0;entryX=0.5;entryY=0;entryDx=0;entryDy=0;" parent="1" source="aoZ7Cay_6pQfR-Mpqlmk-32" target="aoZ7Cay_6pQfR-Mpqlmk-40" edge="1">
          <mxGeometry relative="1" as="geometry" />
        </mxCell>
        <mxCell id="aoZ7Cay_6pQfR-Mpqlmk-32" value="&lt;div&gt;Masukkan&lt;/div&gt;&lt;div&gt;Password&lt;br&gt;&lt;/div&gt;" style="shape=parallelogram;perimeter=parallelogramPerimeter;whiteSpace=wrap;html=1;fixedSize=1;" parent="1" vertex="1">
          <mxGeometry x="-10" y="730" width="130" height="70" as="geometry" />
        </mxCell>
        <mxCell id="aoZ7Cay_6pQfR-Mpqlmk-105" style="edgeStyle=orthogonalEdgeStyle;rounded=0;orthogonalLoop=1;jettySize=auto;html=1;exitX=0.5;exitY=1;exitDx=0;exitDy=0;entryX=0.5;entryY=0;entryDx=0;entryDy=0;" parent="1" source="aoZ7Cay_6pQfR-Mpqlmk-34" target="aoZ7Cay_6pQfR-Mpqlmk-36" edge="1">
          <mxGeometry relative="1" as="geometry" />
        </mxCell>
        <mxCell id="aoZ7Cay_6pQfR-Mpqlmk-34" value="Masukkan username" style="shape=parallelogram;perimeter=parallelogramPerimeter;whiteSpace=wrap;html=1;fixedSize=1;" parent="1" vertex="1">
          <mxGeometry x="347.5" y="600" width="145" height="60" as="geometry" />
        </mxCell>
        <mxCell id="aoZ7Cay_6pQfR-Mpqlmk-36" value="Masukkan Password" style="shape=parallelogram;perimeter=parallelogramPerimeter;whiteSpace=wrap;html=1;fixedSize=1;" parent="1" vertex="1">
          <mxGeometry x="343.75" y="727" width="152.5" height="70" as="geometry" />
        </mxCell>
        <mxCell id="aoZ7Cay_6pQfR-Mpqlmk-97" style="edgeStyle=orthogonalEdgeStyle;rounded=0;orthogonalLoop=1;jettySize=auto;html=1;exitX=0.5;exitY=1;exitDx=0;exitDy=0;" parent="1" source="4voGFHQjfuxiwdlHkZC2-16" target="aoZ7Cay_6pQfR-Mpqlmk-46" edge="1">
          <mxGeometry relative="1" as="geometry" />
        </mxCell>
        <mxCell id="4voGFHQjfuxiwdlHkZC2-11" style="edgeStyle=orthogonalEdgeStyle;rounded=0;orthogonalLoop=1;jettySize=auto;html=1;exitX=0;exitY=0.5;exitDx=0;exitDy=0;" parent="1" source="aoZ7Cay_6pQfR-Mpqlmk-40" target="aoZ7Cay_6pQfR-Mpqlmk-27" edge="1">
          <mxGeometry relative="1" as="geometry">
            <mxPoint x="-120" y="480" as="targetPoint" />
            <Array as="points">
              <mxPoint x="-120" y="945" />
              <mxPoint x="-120" y="480" />
            </Array>
          </mxGeometry>
        </mxCell>
        <mxCell id="aoZ7Cay_6pQfR-Mpqlmk-40" value="&lt;div&gt;Username/Password&lt;/div&gt;&lt;div&gt;sesuai atau tidak sesuai&lt;br&gt;&lt;/div&gt;" style="rhombus;whiteSpace=wrap;html=1;" parent="1" vertex="1">
          <mxGeometry x="-15" y="880" width="140" height="130" as="geometry" />
        </mxCell>
        <mxCell id="4voGFHQjfuxiwdlHkZC2-19" style="edgeStyle=orthogonalEdgeStyle;rounded=0;orthogonalLoop=1;jettySize=auto;html=1;" parent="1" source="aoZ7Cay_6pQfR-Mpqlmk-46" edge="1">
          <mxGeometry relative="1" as="geometry">
            <mxPoint x="55" y="1510" as="targetPoint" />
          </mxGeometry>
        </mxCell>
        <mxCell id="4voGFHQjfuxiwdlHkZC2-21" style="edgeStyle=orthogonalEdgeStyle;rounded=0;orthogonalLoop=1;jettySize=auto;html=1;exitX=0.5;exitY=1;exitDx=0;exitDy=0;" parent="1" source="aoZ7Cay_6pQfR-Mpqlmk-46" edge="1">
          <mxGeometry relative="1" as="geometry">
            <mxPoint x="170" y="1500" as="targetPoint" />
          </mxGeometry>
        </mxCell>
        <mxCell id="4voGFHQjfuxiwdlHkZC2-24" style="edgeStyle=orthogonalEdgeStyle;rounded=0;orthogonalLoop=1;jettySize=auto;html=1;exitX=0.5;exitY=1;exitDx=0;exitDy=0;" parent="1" source="aoZ7Cay_6pQfR-Mpqlmk-46" edge="1">
          <mxGeometry relative="1" as="geometry">
            <mxPoint x="-60" y="1500" as="targetPoint" />
          </mxGeometry>
        </mxCell>
        <mxCell id="4voGFHQjfuxiwdlHkZC2-26" style="edgeStyle=orthogonalEdgeStyle;rounded=0;orthogonalLoop=1;jettySize=auto;html=1;exitX=0.5;exitY=1;exitDx=0;exitDy=0;" parent="1" source="aoZ7Cay_6pQfR-Mpqlmk-46" edge="1">
          <mxGeometry relative="1" as="geometry">
            <mxPoint x="-170" y="1500" as="targetPoint" />
          </mxGeometry>
        </mxCell>
        <mxCell id="4voGFHQjfuxiwdlHkZC2-28" style="edgeStyle=orthogonalEdgeStyle;rounded=0;orthogonalLoop=1;jettySize=auto;html=1;exitX=0.5;exitY=1;exitDx=0;exitDy=0;" parent="1" source="aoZ7Cay_6pQfR-Mpqlmk-46" edge="1">
          <mxGeometry relative="1" as="geometry">
            <mxPoint x="270" y="1500" as="targetPoint" />
          </mxGeometry>
        </mxCell>
        <mxCell id="aoZ7Cay_6pQfR-Mpqlmk-46" value="Menu User" style="rhombus;whiteSpace=wrap;html=1;" parent="1" vertex="1">
          <mxGeometry x="-20" y="1310" width="150" height="140" as="geometry" />
        </mxCell>
        <mxCell id="aoZ7Cay_6pQfR-Mpqlmk-56" style="edgeStyle=orthogonalEdgeStyle;rounded=0;orthogonalLoop=1;jettySize=auto;html=1;exitX=0.5;exitY=1;exitDx=0;exitDy=0;" parent="1" edge="1">
          <mxGeometry relative="1" as="geometry">
            <mxPoint x="50" y="1379.9999999999998" as="sourcePoint" />
            <mxPoint x="50" y="1379.9999999999998" as="targetPoint" />
          </mxGeometry>
        </mxCell>
        <mxCell id="aoZ7Cay_6pQfR-Mpqlmk-107" style="edgeStyle=orthogonalEdgeStyle;rounded=0;orthogonalLoop=1;jettySize=auto;html=1;exitX=0.5;exitY=1;exitDx=0;exitDy=0;entryX=0.583;entryY=0;entryDx=0;entryDy=0;entryPerimeter=0;" parent="1" source="aoZ7Cay_6pQfR-Mpqlmk-36" edge="1">
          <mxGeometry relative="1" as="geometry">
            <mxPoint x="419.96000000000004" y="870" as="targetPoint" />
          </mxGeometry>
        </mxCell>
        <mxCell id="4voGFHQjfuxiwdlHkZC2-3" style="edgeStyle=orthogonalEdgeStyle;rounded=0;orthogonalLoop=1;jettySize=auto;html=1;exitX=1;exitY=0.5;exitDx=0;exitDy=0;" parent="1" source="4voGFHQjfuxiwdlHkZC2-2" edge="1">
          <mxGeometry relative="1" as="geometry">
            <mxPoint x="600" y="480" as="targetPoint" />
          </mxGeometry>
        </mxCell>
        <mxCell id="4voGFHQjfuxiwdlHkZC2-4" style="edgeStyle=orthogonalEdgeStyle;rounded=0;orthogonalLoop=1;jettySize=auto;html=1;exitX=0.5;exitY=1;exitDx=0;exitDy=0;" parent="1" source="4voGFHQjfuxiwdlHkZC2-2" edge="1">
          <mxGeometry relative="1" as="geometry">
            <mxPoint x="420.3333333333335" y="1050" as="targetPoint" />
          </mxGeometry>
        </mxCell>
        <mxCell id="4voGFHQjfuxiwdlHkZC2-2" value="&lt;div&gt;Password/Username&lt;/div&gt;&lt;div&gt;sama&lt;br&gt;&lt;/div&gt;" style="rhombus;whiteSpace=wrap;html=1;" parent="1" vertex="1">
          <mxGeometry x="350" y="840" width="140" height="140" as="geometry" />
        </mxCell>
        <mxCell id="4voGFHQjfuxiwdlHkZC2-15" style="edgeStyle=orthogonalEdgeStyle;rounded=0;orthogonalLoop=1;jettySize=auto;html=1;exitX=0;exitY=0.5;exitDx=0;exitDy=0;" parent="1" source="4voGFHQjfuxiwdlHkZC2-5" edge="1">
          <mxGeometry relative="1" as="geometry">
            <mxPoint x="250" y="490" as="targetPoint" />
          </mxGeometry>
        </mxCell>
        <mxCell id="4voGFHQjfuxiwdlHkZC2-5" value="Pendaftaran Berhasil" style="shape=parallelogram;perimeter=parallelogramPerimeter;whiteSpace=wrap;html=1;fixedSize=1;" parent="1" vertex="1">
          <mxGeometry x="335" y="1040" width="170" height="80" as="geometry" />
        </mxCell>
        <mxCell id="4voGFHQjfuxiwdlHkZC2-9" value="Iya" style="text;strokeColor=none;fillColor=none;align=left;verticalAlign=middle;spacingLeft=4;spacingRight=4;overflow=hidden;points=[[0,0.5],[1,0.5]];portConstraint=eastwest;rotatable=0;whiteSpace=wrap;html=1;" parent="1" vertex="1">
          <mxGeometry x="520" y="870" width="80" height="30" as="geometry" />
        </mxCell>
        <mxCell id="4voGFHQjfuxiwdlHkZC2-10" value="Tidak" style="text;strokeColor=none;fillColor=none;align=left;verticalAlign=middle;spacingLeft=4;spacingRight=4;overflow=hidden;points=[[0,0.5],[1,0.5]];portConstraint=eastwest;rotatable=0;whiteSpace=wrap;html=1;" parent="1" vertex="1">
          <mxGeometry x="430" y="990" width="80" height="30" as="geometry" />
        </mxCell>
        <mxCell id="4voGFHQjfuxiwdlHkZC2-12" value="Tidak sesuai" style="text;strokeColor=none;fillColor=none;align=left;verticalAlign=middle;spacingLeft=4;spacingRight=4;overflow=hidden;points=[[0,0.5],[1,0.5]];portConstraint=eastwest;rotatable=0;whiteSpace=wrap;html=1;" parent="1" vertex="1">
          <mxGeometry x="-95" y="910" width="80" height="30" as="geometry" />
        </mxCell>
        <mxCell id="4voGFHQjfuxiwdlHkZC2-13" value="Sesuai" style="text;strokeColor=none;fillColor=none;align=left;verticalAlign=middle;spacingLeft=4;spacingRight=4;overflow=hidden;points=[[0,0.5],[1,0.5]];portConstraint=eastwest;rotatable=0;whiteSpace=wrap;html=1;" parent="1" vertex="1">
          <mxGeometry x="-15" y="1040" width="80" height="30" as="geometry" />
        </mxCell>
        <mxCell id="4voGFHQjfuxiwdlHkZC2-17" value="" style="edgeStyle=orthogonalEdgeStyle;rounded=0;orthogonalLoop=1;jettySize=auto;html=1;exitX=0.5;exitY=1;exitDx=0;exitDy=0;" parent="1" source="aoZ7Cay_6pQfR-Mpqlmk-40" target="4voGFHQjfuxiwdlHkZC2-16" edge="1">
          <mxGeometry relative="1" as="geometry">
            <mxPoint x="55" y="1010" as="sourcePoint" />
            <mxPoint x="50" y="1400" as="targetPoint" />
          </mxGeometry>
        </mxCell>
        <mxCell id="4voGFHQjfuxiwdlHkZC2-16" value="Berhasil Login" style="shape=parallelogram;perimeter=parallelogramPerimeter;whiteSpace=wrap;html=1;fixedSize=1;" parent="1" vertex="1">
          <mxGeometry x="-30" y="1120" width="170" height="90" as="geometry" />
        </mxCell>
        <mxCell id="4voGFHQjfuxiwdlHkZC2-20" value="&lt;div&gt;Ubah&lt;/div&gt;&lt;div&gt;Data&lt;br&gt;&lt;/div&gt;" style="whiteSpace=wrap;html=1;aspect=fixed;" parent="1" vertex="1">
          <mxGeometry x="13" y="1500" width="80" height="80" as="geometry" />
        </mxCell>
        <mxCell id="4voGFHQjfuxiwdlHkZC2-23" value="Hapus data" style="whiteSpace=wrap;html=1;aspect=fixed;" parent="1" vertex="1">
          <mxGeometry x="129" y="1500" width="80" height="80" as="geometry" />
        </mxCell>
        <mxCell id="4voGFHQjfuxiwdlHkZC2-25" value="&lt;div&gt;Tampilkan&lt;/div&gt;&lt;div&gt;Data&lt;br&gt;&lt;/div&gt;" style="whiteSpace=wrap;html=1;aspect=fixed;" parent="1" vertex="1">
          <mxGeometry x="-100" y="1500" width="80" height="80" as="geometry" />
        </mxCell>
        <mxCell id="4voGFHQjfuxiwdlHkZC2-27" value="Tambah data" style="whiteSpace=wrap;html=1;aspect=fixed;" parent="1" vertex="1">
          <mxGeometry x="-210" y="1500" width="80" height="80" as="geometry" />
        </mxCell>
        <mxCell id="4voGFHQjfuxiwdlHkZC2-30" style="edgeStyle=orthogonalEdgeStyle;rounded=0;orthogonalLoop=1;jettySize=auto;html=1;exitX=0.5;exitY=1;exitDx=0;exitDy=0;entryX=1;entryY=0.5;entryDx=0;entryDy=0;" parent="1" source="4voGFHQjfuxiwdlHkZC2-29" target="aoZ7Cay_6pQfR-Mpqlmk-3" edge="1">
          <mxGeometry relative="1" as="geometry">
            <mxPoint x="730" y="220" as="targetPoint" />
            <Array as="points">
              <mxPoint x="270" y="1540" />
              <mxPoint x="870" y="1540" />
              <mxPoint x="870" y="340" />
            </Array>
          </mxGeometry>
        </mxCell>
        <mxCell id="4voGFHQjfuxiwdlHkZC2-29" value="Keluar" style="whiteSpace=wrap;html=1;aspect=fixed;" parent="1" vertex="1">
          <mxGeometry x="230" y="1500" width="80" height="80" as="geometry" />
        </mxCell>
        <mxCell id="4voGFHQjfuxiwdlHkZC2-32" value="END" style="ellipse;whiteSpace=wrap;html=1;" parent="1" vertex="1">
          <mxGeometry x="496.25" y="1240" width="120" height="80" as="geometry" />
        </mxCell>
        <mxCell id="4voGFHQjfuxiwdlHkZC2-33" value="1" style="text;strokeColor=none;fillColor=none;align=left;verticalAlign=middle;spacingLeft=4;spacingRight=4;overflow=hidden;points=[[0,0.5],[1,0.5]];portConstraint=eastwest;rotatable=0;whiteSpace=wrap;html=1;" parent="1" vertex="1">
          <mxGeometry x="-170" y="1470" width="80" height="30" as="geometry" />
        </mxCell>
        <mxCell id="4voGFHQjfuxiwdlHkZC2-34" value="2" style="text;strokeColor=none;fillColor=none;align=left;verticalAlign=middle;spacingLeft=4;spacingRight=4;overflow=hidden;points=[[0,0.5],[1,0.5]];portConstraint=eastwest;rotatable=0;whiteSpace=wrap;html=1;" parent="1" vertex="1">
          <mxGeometry x="-60" y="1470" width="80" height="30" as="geometry" />
        </mxCell>
        <mxCell id="4voGFHQjfuxiwdlHkZC2-35" value="3" style="text;strokeColor=none;fillColor=none;align=left;verticalAlign=middle;spacingLeft=4;spacingRight=4;overflow=hidden;points=[[0,0.5],[1,0.5]];portConstraint=eastwest;rotatable=0;whiteSpace=wrap;html=1;" parent="1" vertex="1">
          <mxGeometry x="60" y="1470" width="80" height="30" as="geometry" />
        </mxCell>
        <mxCell id="4voGFHQjfuxiwdlHkZC2-36" value="4" style="text;strokeColor=none;fillColor=none;align=left;verticalAlign=middle;spacingLeft=4;spacingRight=4;overflow=hidden;points=[[0,0.5],[1,0.5]];portConstraint=eastwest;rotatable=0;whiteSpace=wrap;html=1;" parent="1" vertex="1">
          <mxGeometry x="170" y="1470" width="80" height="30" as="geometry" />
        </mxCell>
        <mxCell id="4voGFHQjfuxiwdlHkZC2-37" value="5" style="text;strokeColor=none;fillColor=none;align=left;verticalAlign=middle;spacingLeft=4;spacingRight=4;overflow=hidden;points=[[0,0.5],[1,0.5]];portConstraint=eastwest;rotatable=0;whiteSpace=wrap;html=1;" parent="1" vertex="1">
          <mxGeometry x="267.5" y="1470" width="80" height="30" as="geometry" />
        </mxCell>
      </root>
    </mxGraphModel>
  </diagram>
</mxfile>
